<svg width="36" height="36" viewBox="0 0 36 36" fill="none" xmlns="http://www.w3.org/2000/svg">
<mask id="mask0" mask-type="alpha" maskUnits="userSpaceOnUse" x="0" y="0" width="36" height="36">
<circle cx="18" cy="18" r="18" fill="#C4C4C4"/>
</mask>
<g mask="url(#mask0)">
<path d="M2.32294 12.613C2.32294 12.0607 2.77065 11.613 3.32294 11.613H13.3339C16.0953 11.613 18.3339 13.8515 18.3339 16.613V34.5313C18.3339 37.2927 16.0953 39.5313 13.3339 39.5313H3.32294C2.77065 39.5313 2.32294 39.0836 2.32294 38.5313V12.613Z" fill="url(#paint0_linear)"/>
<path d="M33.677 12.6129C33.677 12.0607 33.2293 11.6129 32.677 11.6129H22.666C19.9046 11.6129 17.666 13.8515 17.666 16.6129V34.5313C17.666 37.2927 19.9046 39.5313 22.666 39.5313H32.677C33.2293 39.5313 33.677 39.0836 33.677 38.5313V12.6129Z" fill="url(#paint1_linear)"/>
<path d="M4.99094 15.5516C4.99094 14.9993 5.43865 14.5516 5.99094 14.5516H14.3334C16.5426 14.5516 18.3334 16.3425 18.3334 18.5516V32.5924C18.3334 34.8015 16.5426 36.5924 14.3334 36.5924H5.99094C5.43865 36.5924 4.99094 36.1447 4.99094 35.5924V15.5516Z" fill="url(#paint2_linear)"/>
<path d="M31.0089 15.5516C31.0089 14.9993 30.5612 14.5516 30.0089 14.5516H21.6665C19.4573 14.5516 17.6665 16.3425 17.6665 18.5516V32.5924C17.6665 34.8015 19.4573 36.5924 21.6665 36.5924H30.0089C30.5612 36.5924 31.0089 36.1447 31.0089 35.5924V15.5516Z" fill="url(#paint3_linear)"/>
<path d="M26.5706 22.6332C26.5532 22.6332 26.5356 22.6304 26.5188 22.6248C25.2747 22.2123 24.4388 21.0586 24.4388 19.7541V17.8807C24.4388 17.7906 24.5121 17.7176 24.6027 17.7176C25.214 17.7176 25.8058 17.5393 26.3144 17.2021L26.4797 17.0925C26.5348 17.0559 26.6065 17.0559 26.6616 17.0925L26.8269 17.2021C27.3355 17.5394 27.9273 17.7176 28.5386 17.7176C28.6292 17.7176 28.7025 17.7906 28.7025 17.8807V19.7541C28.7025 21.0586 27.8666 22.2123 26.6225 22.6248C26.6057 22.6304 26.5881 22.6332 26.5706 22.6332Z" fill="url(#paint4_linear)"/>
<path d="M26.5717 21.3184C25.836 21.3184 25.2375 20.6593 25.2375 19.8491C25.2375 19.0388 25.836 18.3797 26.5717 18.3797C27.3075 18.3797 27.906 19.0388 27.906 19.8491C27.906 20.6593 27.3075 21.3184 26.5717 21.3184Z" fill="url(#paint5_linear)"/>
<path d="M26.451 20.2155C26.4202 20.2155 26.3895 20.2036 26.366 20.1797L26.1255 19.9354C26.0785 19.8877 26.0785 19.8104 26.1255 19.7627C26.1724 19.715 26.2485 19.715 26.2955 19.7627L26.451 19.9206L26.847 19.5184C26.894 19.4707 26.9701 19.4707 27.017 19.5184C27.064 19.5661 27.064 19.6434 27.017 19.6911L26.536 20.1797C26.5125 20.2036 26.4818 20.2155 26.451 20.2155Z" fill="#FF9900"/>
<rect x="17.822" y="19.7767" width="0.355316" height="10.44" rx="0.177658" fill="url(#paint6_linear)"/>
<path d="M6.992 22.44V11.6129H11.2558V22.44L9.1239 20.1199L6.992 22.44Z" fill="url(#paint7_linear)"/>
<rect width="6.39569" height="1.54672" rx="0.773362" transform="matrix(1 0 0 -1 6.992 25.9574)" fill="url(#paint8_linear)"/>
<rect width="8.52759" height="1.54672" rx="0.773362" transform="matrix(1 0 0 -1 6.992 29.8244)" fill="url(#paint9_linear)"/>
<rect width="6.39569" height="1.54672" rx="0.773362" transform="matrix(1 0 0 -1 22.3073 25.9574)" fill="url(#paint10_linear)"/>
<rect width="8.52759" height="1.54672" rx="0.773362" transform="matrix(1 0 0 -1 20.1754 29.8244)" fill="url(#paint11_linear)"/>
</g>
<defs>
<linearGradient id="paint0_linear" x1="10.6486" y1="39.5313" x2="23.9859" y2="29.6924" gradientUnits="userSpaceOnUse">
<stop stop-color="#6E52F1"/>
<stop offset="1" stop-color="#8267FF"/>
</linearGradient>
<linearGradient id="paint1_linear" x1="25.3513" y1="39.5313" x2="12.014" y2="29.6924" gradientUnits="userSpaceOnUse">
<stop stop-color="#6E52F1"/>
<stop offset="1" stop-color="#8267FF"/>
</linearGradient>
<linearGradient id="paint2_linear" x1="11.6622" y1="36.5924" x2="10.4978" y2="14.6133" gradientUnits="userSpaceOnUse">
<stop stop-color="#E1DBFF"/>
<stop offset="1" stop-color="white"/>
</linearGradient>
<linearGradient id="paint3_linear" x1="24.3377" y1="36.5924" x2="25.5021" y2="14.6133" gradientUnits="userSpaceOnUse">
<stop stop-color="#E1DBFF"/>
<stop offset="1" stop-color="white"/>
</linearGradient>
<linearGradient id="paint4_linear" x1="26.5706" y1="21.44" x2="26.4268" y2="17.0698" gradientUnits="userSpaceOnUse">
<stop stop-color="#E9A540"/>
<stop offset="1" stop-color="#FFC657"/>
</linearGradient>
<linearGradient id="paint5_linear" x1="26.5717" y1="21.3184" x2="26.5717" y2="18.3797" gradientUnits="userSpaceOnUse">
<stop stop-color="#FFECC8"/>
<stop offset="1" stop-color="#FFF6F7"/>
</linearGradient>
<linearGradient id="paint6_linear" x1="18.0068" y1="30.2167" x2="18.463" y2="30.1967" gradientUnits="userSpaceOnUse">
<stop stop-color="#6E52F1"/>
<stop offset="1" stop-color="#8267FF"/>
</linearGradient>
<linearGradient id="paint7_linear" x1="9.1239" y1="20.1199" x2="8.58181" y2="11.6476" gradientUnits="userSpaceOnUse">
<stop stop-color="#E9A540"/>
<stop offset="1" stop-color="#FFC657"/>
</linearGradient>
<linearGradient id="paint8_linear" x1="6.63829" y1="0.409116" x2="-0.324526" y2="1.04376" gradientUnits="userSpaceOnUse">
<stop stop-color="#3B1CD2"/>
<stop offset="1" stop-color="#6C4EFA"/>
</linearGradient>
<linearGradient id="paint9_linear" x1="8.85106" y1="0.409116" x2="-0.373586" y2="1.53019" gradientUnits="userSpaceOnUse">
<stop stop-color="#3B1CD2"/>
<stop offset="1" stop-color="#6C4EFA"/>
</linearGradient>
<linearGradient id="paint10_linear" x1="6.63829" y1="0.409116" x2="-0.324526" y2="1.04376" gradientUnits="userSpaceOnUse">
<stop stop-color="#3B1CD2"/>
<stop offset="1" stop-color="#6C4EFA"/>
</linearGradient>
<linearGradient id="paint11_linear" x1="8.85106" y1="0.409116" x2="-0.373586" y2="1.53019" gradientUnits="userSpaceOnUse">
<stop stop-color="#3B1CD2"/>
<stop offset="1" stop-color="#6C4EFA"/>
</linearGradient>
</defs>
</svg>
